PathFileType	4	(X/Y/Z)	C:\Users\Basilio\Documents\Thesis Gigler\squatting_fais\c3dfiles\076\SJ_pre3\markers_experimental.trc
DataRate	CameraRate	NumFrames	NumMarkers	Units	OrigDataRate	OrigDataStartFrame	OrigNumFrames
200.000000	200.000000	4	61	mm	200.000000	682	1365
Frame#	Time	FHD			RBHD			C7			T10			CLAV			LSHO			LUUPA			LMUPA			LDUPA			LLEP			LMEP			LRAD			LUL			LRFIN			RSHO			RUPA1			RMUPA			RDUPA			RLEP			RMEP			RRAD			RUL			RUFIN			LASI			RASI			USACR			LSACR			RSACR			LTHI1			LTHI2			LTHI3			LTHI4			LLFC			LMFC			LTIB1			LTIB2			LTIB3			LTIB4			LLMAL			LMMAL			LHEE			LMT1			LMT2			LMT5			RTHI			RTHI2			RTHI3			RTHI4			RLFC			RMFC			RTIB1			RTIB2			RTIB3			RTIB4			RLMAL			RMMAL			RHEE			RMT1			RMT2			RMT5			LBHD			
		X1	Y1	Z1	X2	Y2	Z2	X3	Y3	Z3	X4	Y4	Z4	X5	Y5	Z5	X6	Y6	Z6	X7	Y7	Z7	X8	Y8	Z8	X9	Y9	Z9	X10	Y10	Z10	X11	Y11	Z11	X12	Y12	Z12	X13	Y13	Z13	X14	Y14	Z14	X15	Y15	Z15	X16	Y16	Z16	X17	Y17	Z17	X18	Y18	Z18	X19	Y19	Z19	X20	Y20	Z20	X21	Y21	Z21	X22	Y22	Z22	X23	Y23	Z23	X24	Y24	Z24	X25	Y25	Z25	X26	Y26	Z26	X27	Y27	Z27	X28	Y28	Z28	X29	Y29	Z29	X30	Y30	Z30	X31	Y31	Z31	X32	Y32	Z32	X33	Y33	Z33	X34	Y34	Z34	X35	Y35	Z35	X36	Y36	Z36	X37	Y37	Z37	X38	Y38	Z38	X39	Y39	Z39	X40	Y40	Z40	X41	Y41	Z41	X42	Y42	Z42	X43	Y43	Z43	X44	Y44	Z44	X45	Y45	Z45	X46	Y46	Z46	X47	Y47	Z47	X48	Y48	Z48	X49	Y49	Z49	X50	Y50	Z50	X51	Y51	Z51	X52	Y52	Z52	X53	Y53	Z53	X54	Y54	Z54	X55	Y55	Z55	X56	Y56	Z56	X57	Y57	Z57	X58	Y58	Z58	X59	Y59	Z59	X60	Y60	Z60	X61	Y61	Z61	

683	3.41	67.20572662353517	1116.28076171875	-892.3804931640627	-70.40319061279298	1078.825439453125	-838.6680297851565	-151.1819000244141	1024.098999023438	-919.4896240234377	-406.611053466797	847.0234985351565	-939.946472167969	-97.97998046875003	878.6821289062502	-912.9556274414065	-101.6631317138672	930.8110351562502	-1081.40576171875	-187.0518951416016	830.5585937500002	-1227.707153320313	-216.9709930419922	793.458923339844	-1215.364013671875	-229.1358489990235	796.4133911132815	-1273.544067382813	-270.5111999511719	775.2478027343752	-1309.089111328125	-329.4553527832032	840.8560791015627	-1302.891723632813	-449.8673400878907	725.2957153320314	-1151.066162109375	-415.4687500000001	715.7094726562501	-1104.181274414063	-436.3471679687501	663.3016357421876	-1167.6611328125	-136.4678955078125	935.451599121094	-754.7152709960939	-259.6076660156251	879.7302246093752	-614.5124511718751	-271.5289306640626	830.332458496094	-616.3557739257814	-309.4898376464844	849.5164184570315	-573.1943969726564	-362.0769042968751	801.8608398437502	-552.7280883789064	-422.316375732422	853.0230712890627	-596.0783081054689	-475.3202514648439	704.1873779296876	-743.5688476562501	-425.1397094726564	694.0579833984376	-767.3860473632814	-455.722869873047	646.5433959960939	-711.7575683593751	-398.2682189941407	625.6874389648439	-1038.437744140625	nan	nan	nan	-497.5455017089845	774.3984375000002	-942.8028564453127	-521.9385986328126	759.8265380859376	-973.3975830078127	-527.3032226562501	755.5497436523439	-916.3184814453127	-436.3323364257814	596.2885742187501	-1148.778930664063	-354.9659729003907	575.1103515625001	-1142.93994140625	-329.7100219726563	604.7383422851564	-1113.194580078125	-330.6372680664063	519.4146118164064	-1151.15869140625	-214.8638305664063	416.1183471679689	-1134.803955078125	-208.9812164306641	411.902069091797	-1025.778564453125	-223.2827453613282	279.2257690429688	-1059.177978515625	-256.3138732910157	232.7068023681641	-1126.144897460938	-235.7933959960938	227.0861358642579	-1085.543212890625	-289.0271301269532	170.2941284179688	-1055.579711914063	-380.4080505371094	77.81650543212892	-1120.7724609375	-363.4019775390626	87.52236938476564	-1034.2216796875	-446.0845031738282	43.27691650390626	-1077.5107421875	-236.0715026855469	53.84961700439455	-1050.492065429688	-229.2920227050782	54.39533615112306	-1089.0888671875	-246.2149658203126	43.36507797241212	-1140.6142578125	-390.7133789062501	533.3344116210939	-728.1525878906251	-322.3741149902344	534.1534423828126	-718.3884277343751	-303.3005065917969	560.0501098632814	-732.8943481445314	-276.2637023925782	462.286346435547	-718.9817504882814	-233.6895294189454	427.7137451171876	-718.3090820312501	-210.1511840820313	425.5503540039064	-822.4383544921877	-207.0405883789063	293.3815917968751	-737.1506958007814	-303.1758422851563	243.2752227783204	-712.8615722656251	-261.7397155761719	226.1898803710938	-729.2648925781251	-268.1315917968751	182.2173461914063	-766.6259155273439	-375.0146484375001	77.21762084960939	-737.2717895507814	-354.3009033203126	89.06116485595705	-820.994323730469	-436.2120971679689	50.51911544799806	-784.474792480469	-228.0456695556641	53.11421203613283	-800.2650146484377	-225.1646270751954	56.39985275268556	-754.8397216796876	-251.8838195800782	34.79746246337891	-701.6014404296876	-83.12166595458986	1075.80224609375	-990.934753417969	
684	3.415	67.86345672607423	1114.772216796875	-892.356140136719	-69.68399047851564	1077.539916992188	-838.6534423828127	-150.5841064453125	1023.033020019531	-919.5421142578127	-406.4485473632814	846.6624755859377	-939.9483642578127	-97.40309906005862	877.3471679687502	-912.8532714843752	-101.0260543823242	929.3526611328127	-1081.548095703125	-186.5907440185547	828.911315917969	-1227.315185546875	-216.8213806152344	792.522888183594	-1215.212524414063	-229.6174011230469	795.2572021484377	-1273.007080078125	-270.6156005859376	774.1887207031252	-1308.97216796875	-329.2659912109376	840.5100708007815	-1302.961059570313	-449.9252014160157	725.1925659179689	-1151.122436523438	-416.9082946777345	716.2083129882814	-1104.351318359375	-436.7473144531251	663.2315063476564	-1167.607666015625	-136.1521759033203	934.184020996094	-755.4334106445314	-259.2719421386719	878.6684570312502	-614.3603515625001	-271.2850646972657	829.5540771484377	-616.3801879882814	-309.1933898925782	848.8374633789065	-573.1758422851564	-361.8283691406251	801.265808105469	-552.7762451171876	-421.9012451171876	852.6403808593752	-596.0971679687501	-475.4160461425782	704.0772094726564	-743.5683593750001	-425.3685302734376	693.8961181640626	-767.4014892578126	-456.0809020996095	646.3066406250001	-711.8018798828126	-399.0344238281251	624.9815063476564	-1038.265502929688	nan	nan	nan	-497.818328857422	774.1409912109377	-942.8367309570315	-522.1973266601564	759.6603393554689	-973.4433593750002	-527.5773925781251	755.4774169921876	-916.3557739257815	-436.726531982422	596.1492919921876	-1148.770385742188	-355.8740234375001	575.2343750000001	-1143.162719726563	-329.9886169433594	604.7062377929689	-1113.25537109375	-331.6679077148438	519.5740966796876	-1151.434326171875	-214.9767761230469	416.225067138672	-1134.81103515625	-209.0449829101563	411.9408264160157	-1025.803100585938	-223.3795013427735	279.2967834472657	-1059.200317382813	-256.6457214355469	232.7642364501954	-1126.014892578125	-235.9018249511719	227.1282653808594	-1085.569213867188	-289.0564575195313	170.3230133056641	-1055.611572265625	-380.4386901855469	77.78274536132814	-1120.79638671875	-363.3793334960938	87.5014114379883	-1034.226318359375	-446.0768432617189	43.25389480590821	-1077.508422851563	-236.0609283447266	53.73792266845705	-1050.536499023438	-229.3059234619141	54.4361038208008	-1089.09375	-246.2035064697266	43.36759948730469	-1140.579833984375	-390.9547119140626	533.2789916992189	-728.1455078125001	-322.6493835449219	534.1273193359376	-718.3601684570314	-303.5431518554688	560.0629272460939	-732.8651123046876	-276.4739379882813	462.3410644531251	-718.9105834960939	-233.7747650146485	427.7844238281251	-718.2719116210939	-210.2189025878907	425.5764770507814	-822.3445434570315	-207.1967163085938	293.4117431640626	-737.0818481445314	-303.2693481445313	243.2769927978516	-712.8288574218751	-261.8385314941407	226.2617950439454	-729.2081298828126	-268.1582031250001	182.226791381836	-766.5498657226564	-375.0625305175782	77.21155548095705	-737.2523193359376	-354.4991455078126	89.12957763671876	-821.005310058594	-436.2051086425782	50.5333824157715	-784.5003051757815	-228.0929870605469	53.11341476440431	-800.2879638671877	-225.1562957763672	56.43919372558595	-754.8697509765626	-251.8833160400391	34.80477523803712	-701.6032104492189	-82.4085159301758	1074.499755859375	-990.790222167969	
685	3.42	68.79040527343751	1112.828491210938	-892.317321777344	-68.9100799560547	1075.926513671875	-838.6948852539065	-149.9075164794922	1021.784484863281	-919.4944458007815	-406.3399353027345	846.359069824219	-939.9597778320315	-96.97334289550784	876.006042480469	-912.8325805664065	-99.82480621337893	928.0286865234377	-1081.197021484375	-186.6438140869141	828.1296386718752	-1227.343017578125	-216.8832092285157	791.7037353515627	-1215.295776367188	-229.3795318603516	794.231872558594	-1273.012939453125	-270.5050354003907	773.5826416015627	-1308.981201171875	-328.8981018066407	839.9854125976565	-1302.959838867188	-450.0458374023439	725.0767211914064	-1151.187255859375	-417.1499328613282	716.0578002929689	-1104.34375	-437.2405700683595	663.1473388671876	-1167.736206054688	-135.5687103271485	932.9548339843752	-755.3602905273439	-258.7673950195313	877.806823730469	-614.4210815429689	-270.9992370605469	828.7128906250002	-616.3577880859376	-308.8413085937501	848.222839355469	-573.1009521484376	-361.6335449218751	800.6207275390627	-552.6812133789064	-421.4983520507814	852.3193969726565	-596.0422363281251	-475.650848388672	703.9578857421876	-743.4981689453126	-425.6763916015626	693.7835083007814	-767.4210205078126	-456.3306884765626	646.2335205078126	-711.8286743164064	-401.1439208984376	623.0800781250001	-1038.481567382813	nan	nan	nan	-497.738983154297	773.655456542969	-942.9678955078127	-522.5773315429689	759.2061157226564	-973.5137939453127	-527.4739990234376	755.4061279296876	-916.299987792969	-436.9758605957032	596.0053710937501	-1148.753051757813	-356.2284851074219	575.1571044921876	-1143.127075195313	-330.2913818359376	604.7122802734376	-1113.306518554688	-330.6673278808594	519.3115234375001	-1151.072143554688	-215.1710357666016	416.2920837402345	-1134.858032226563	-209.1706848144532	412.0137939453126	-1025.8203125	-223.5338897705079	279.2631835937501	-1059.281127929688	-256.7243957519532	232.813705444336	-1126.03515625	-235.9721984863282	227.2045440673829	-1085.582763671875	-289.1273803710938	170.366928100586	-1055.608276367188	-380.4237670898438	77.75096893310548	-1120.7841796875	-363.4541931152344	87.51877593994142	-1034.267211914063	-446.0189208984376	43.22496414184571	-1077.528930664063	-236.0752410888672	53.82738494873048	-1050.494506835938	-229.2305755615235	54.42456817626955	-1089.058471679688	-246.1576232910157	43.43615722656251	-1140.607177734375	-391.2140197753907	533.2584228515626	-728.1417236328126	-322.9320678710938	534.1259155273439	-718.3146972656251	-303.8571472167969	560.0585327148439	-732.8164672851564	-276.6922607421876	462.2669677734376	-718.8416137695314	-233.9940490722657	427.8093872070314	-718.1942138671876	-210.2351531982422	425.430145263672	-822.3416137695315	-207.2344360351563	293.4606933593751	-737.0349731445314	-303.3284301757813	243.2993774414063	-712.7383422851564	-261.9285583496094	226.4010162353516	-729.0769042968751	-268.2240295410157	182.2710418701172	-766.5704345703126	-375.0532836914063	77.22560119628908	-737.2495117187501	-354.2901916503907	89.09787750244142	-820.9405517578127	-436.2468261718751	50.53972625732423	-784.413269042969	-228.0350799560547	53.13674163818361	-800.2647705078127	-225.1097564697266	56.47891235351564	-754.8338623046876	-251.9117584228516	34.78770446777344	-701.5653076171876	-80.43305969238283	1073.496459960938	-991.3297119140627	
686	3.425	69.44031524658205	1111.357666015625	-892.1334228515627	-68.0782928466797	1074.545043945313	-838.816833496094	-149.1053924560547	1020.606994628906	-919.552917480469	-406.2663879394532	845.9892578125002	-939.864440917969	-96.70655059814456	874.7105102539065	-912.8995361328127	-99.30503845214847	926.5655517578127	-1081.297119140625	-187.915771484375	827.1605224609377	-1226.866577148438	-216.9808044433594	790.7490844726565	-1215.383178710938	-229.1369934082032	793.444274902344	-1273.029052734375	-270.4858093261719	772.7119140625002	-1309.000610351563	-328.4410705566407	839.4360351562502	-1302.943359375	-450.2497558593751	724.9627075195314	-1151.213012695313	-417.4100341796876	715.9552001953126	-1104.317260742188	-437.6819458007814	663.1309204101564	-1167.76806640625	-134.9710388183594	931.7567138671877	-755.3511962890626	-258.2763671875001	876.9621582031252	-614.4097900390626	-270.6727294921876	827.7625122070315	-616.3547973632814	-308.4777832031251	847.447937011719	-573.0971679687501	-361.4826965332032	800.083923339844	-552.6826782226564	-421.232635498047	852.0396728515627	-595.9989624023439	-475.8120727539064	703.8537597656251	-743.4974975585939	-425.9709472656251	693.5928955078126	-767.4472656250001	-456.6771850585939	645.9956054687501	-711.8133544921876	-401.3632202148439	623.0262451171876	-1038.43798828125	nan	nan	nan	-498.088836669922	773.5000000000002	-942.915710449219	-522.9032592773439	759.0576171875001	-973.529235839844	-527.8436279296876	755.2197875976564	-916.3068847656252	-437.3056945800782	595.8516845703126	-1148.885009765625	-356.5268249511719	575.1255493164064	-1143.133544921875	-330.7406311035157	604.5877075195314	-1113.302978515625	-331.3807067871094	519.3668212890626	-1151.269287109375	-215.3299255371094	416.3118896484376	-1134.9091796875	-209.2934875488282	412.0572509765626	-1025.802490234375	-223.5051727294922	279.4089965820313	-1059.274536132813	-256.7123413085938	232.8478088378907	-1126.084228515625	-236.0069122314454	227.265365600586	-1085.659545898438	-289.1638488769532	170.4454803466797	-1055.664672851563	-380.3802490234376	77.74794769287111	-1120.808349609375	-363.4605407714844	87.51656341552736	-1034.262329101563	-446.1518554687501	43.23751449584962	-1077.501586914063	-236.0660858154297	53.87191772460939	-1050.480224609375	-229.2835235595704	54.48498535156251	-1089.077758789063	-246.1900329589844	43.40051651000977	-1140.57275390625	-391.5129394531251	533.1578979492189	-728.1494140625001	-323.2406616210938	534.0358276367189	-718.2666015625001	-304.1967163085938	560.0181274414064	-732.7670898437501	-276.8933410644532	462.3591308593751	-718.7583618164064	-234.1489562988282	427.8488159179689	-718.0962524414064	-210.5622863769532	425.5336914062501	-822.2691040039065	-207.3376617431641	293.5409851074219	-736.9563598632814	-303.3965454101563	243.3176574707032	-712.7114868164064	-261.9886169433594	226.4347839355469	-729.0007324218751	-268.3036193847657	182.3289489746094	-766.5078125000001	-375.0700073242188	77.19871520996095	-737.1963500976564	-354.4091796875001	89.15128326416017	-820.9647216796877	-436.2303771972657	50.50941467285158	-784.4338989257815	-228.0508117675782	53.1771812438965	-800.2733154296877	-225.1512908935547	56.44807434082033	-754.8554687500001	-251.8979644775391	34.78343963623048	-701.6153564453126	-79.68283843994142	1072.127685546875	-991.2319946289065	
